<?xml version="1.0" encoding="UTF-8" standalone="no"?>
<!-- Created with Inkscape (http://www.inkscape.org/) -->

<svg
   xmlns:dc="http://purl.org/dc/elements/1.1/"
   xmlns:cc="http://creativecommons.org/ns#"
   xmlns:rdf="http://www.w3.org/1999/02/22-rdf-syntax-ns#"
   xmlns:svg="http://www.w3.org/2000/svg"
   xmlns="http://www.w3.org/2000/svg"
   xmlns:xlink="http://www.w3.org/1999/xlink"
   xmlns:sodipodi="http://sodipodi.sourceforge.net/DTD/sodipodi-0.dtd"
   xmlns:inkscape="http://www.inkscape.org/namespaces/inkscape"
   width="256px"
   height="256px"
   viewBox="0 0 256 256"
   version="1.1"
   id="SVGRoot"
   inkscape:export-filename="/home/amin/Documents/LUG/shzlogo01.png"
   inkscape:export-xdpi="300"
   inkscape:export-ydpi="300"
   inkscape:version="0.92.2 5c3e80d, 2017-08-06"
   sodipodi:docname="shzlogo03.svg">
  <sodipodi:namedview
     id="base"
     pagecolor="#ffffff"
     bordercolor="#666666"
     borderopacity="1.0"
     inkscape:pageopacity="0.0"
     inkscape:pageshadow="2"
     inkscape:zoom="4"
     inkscape:cx="247.94298"
     inkscape:cy="125.77379"
     inkscape:document-units="px"
     inkscape:current-layer="layer1"
     showgrid="false"
     inkscape:window-width="3840"
     inkscape:window-height="2015"
     inkscape:window-x="0"
     inkscape:window-y="71"
     inkscape:window-maximized="1"
     inkscape:grid-bbox="true"
     showguides="true"
     inkscape:guide-bbox="true" />
  <defs
     id="defs891" />
  <metadata
     id="metadata894">
    <rdf:RDF>
      <cc:Work
         rdf:about="">
        <dc:format>image/svg+xml</dc:format>
        <dc:type
           rdf:resource="http://purl.org/dc/dcmitype/StillImage" />
        <dc:title></dc:title>
      </cc:Work>
    </rdf:RDF>
  </metadata>
  <g
     id="layer1"
     inkscape:groupmode="layer"
     inkscape:label="Layer 1">
    <text
       xml:space="preserve"
       style="font-style:normal;font-variant:normal;font-weight:normal;font-stretch:normal;font-size:48.33172607px;line-height:1.25;font-family:Sabo;-inkscape-font-specification:Sabo;letter-spacing:0px;word-spacing:0px;fill:#000000;fill-opacity:1;stroke:none;stroke-width:1.20829308"
       x="244.49571"
       y="17.613222"
       id="text849"
       transform="scale(1.0002756,0.99972445)"><tspan
         sodipodi:role="line"
         id="tspan847"
         x="244.49571"
         y="61.629616"
         style="stroke-width:1.20829308" /></text>
    <text
       xml:space="preserve"
       style="font-style:normal;font-weight:normal;font-size:40px;line-height:1.25;font-family:sans-serif;letter-spacing:0px;word-spacing:0px;fill:#000000;fill-opacity:1;stroke:none"
       x="62.25"
       y="247.75"
       id="text858"><tspan
         sodipodi:role="line"
         id="tspan856"
         x="62.25"
         y="283.14062" /></text>
    <g
       id="g1091"
       transform="translate(0.26248143,-0.33276052)">
      <path
         id="rect863"
         d="M 166.45962,0.85581104 H 89.015433 c -49.20914,0 -88.82514586,39.59418796 -88.82514586,88.77620396 v 77.401495 c 0,49.18201 39.61600586,88.7762 88.82514586,88.7762 h 77.444187 c 49.20913,0 88.82513,-39.59419 88.82513,-88.7762 V 89.632015 c 0,-49.182016 -39.616,-88.77620396 -88.82513,-88.77620396 z"
         style="opacity:1;fill:#772953;fill-opacity:1;stroke:#929292;stroke-width:0.38057429;stroke-miterlimit:4;stroke-dasharray:none;stroke-opacity:1;paint-order:fill markers stroke"
         inkscape:connector-curvature="0" />
      <g
         transform="translate(0,-13.924743)"
         id="g1053">
        <g
           id="g1566"
           style="fill:#e95420;fill-opacity:1"
           transform="matrix(0.92436562,0,0,0.92436562,5.6062481,12.001805)">
          <g
             transform="translate(0,9.195496)"
             id="g1058">
            <g
               transform="matrix(1.030301,0,0,1.030301,-4.0121063,-4.9083809)"
               id="g1063">
              <path
                 sodipodi:nodetypes="ssscccss"
                 inkscape:connector-curvature="0"
                 id="rect826"
                 d="m 132.63684,117.02359 c 2.37891,2.68371 11.40217,-12.38666 13.2201,-9.29571 10.427,17.72859 19.86959,53.80433 22.76849,83.06641 2.08026,20.99869 -11.60254,62.78334 -11.60254,62.78334 0,0 -13.47749,-34.91585 -13.75579,-57.51999 1.27617,-29.35964 1.25855,-48.34987 -8.32993,-66.30539 -6.63678,-10.75469 -11.9923,-18.61512 -15.19631,-20.79051 -0.93689,-0.63612 6.99577,1.40565 12.89598,8.06185 z"
                 style="opacity:1;fill:#e95420;fill-opacity:1;stroke-width:0;stroke-miterlimit:4;stroke-dasharray:none" />
              <path
                 sodipodi:nodetypes="ccsscacc"
                 inkscape:connector-curvature="0"
                 id="path829"
                 d="m 123.20467,252.28394 h -3e-5 c 0,0 -2.73537,1.72694 -4.10722,-0.59527 -3.74741,-6.34348 -9.16592,-22.45218 -11.1034,-30.72321 -2.30273,-9.83028 -0.24391,-30.28731 -0.24391,-30.28731 0,0 5.07137,21.21325 7.72728,31.79019 2.50043,9.9577 7.72725,29.8156 7.72725,29.8156 z"
                 inkscape:transform-center-y="-3.4440097"
                 inkscape:transform-center-x="-0.0078393229"
                 style="opacity:1;fill:#e95420;fill-opacity:1;stroke-width:0;stroke-miterlimit:4;stroke-dasharray:none" />
              <path
                 sodipodi:nodetypes="sssccs"
                 inkscape:connector-curvature="0"
                 id="rect832"
                 d="m 98.182118,71.13814 c 20.852252,7.969669 22.026602,4.992465 31.029742,7.275396 0,0 13.84468,5.281238 15.24325,24.112684 0.51935,6.9933 -13.05782,-32.638548 -22.58167,-0.12 l -3.44714,-1.06233 C 119.18564,80.253006 87.48874,67.051167 98.182118,71.13814 Z"
                 style="opacity:1;fill:#e95420;fill-opacity:1;stroke-width:0;stroke-miterlimit:4;stroke-dasharray:none" />
            </g>
          </g>
        </g>
        <g
           id="g1032"
           transform="translate(7.377646,-6)">
          <g
             transform="matrix(0.9405,0,0,0.9405,0.88223158,13.910489)"
             style="fill:#ffffff"
             id="g867">
            <path
               inkscape:connector-curvature="0"
               id="path1524"
               style="font-style:normal;font-variant:normal;font-weight:bold;font-stretch:normal;font-size:35.82522202px;line-height:1.25;font-family:'Ubuntu Mono';-inkscape-font-specification:'Ubuntu Mono Bold';letter-spacing:0px;word-spacing:0px;fill:#ffffff;fill-opacity:1;stroke:none;stroke-width:1.34344578"
               d="m 50.246106,63.65881 q 1.612579,0 2.472622,-0.214893 0.860042,-0.250707 0.860042,-0.967015 0,-0.465598 -0.286681,-0.787936 -0.250845,-0.322338 -0.752536,-0.537231 -0.465856,-0.250707 -1.110888,-0.4656 -0.609197,-0.214892 -1.290064,-0.429783 -0.967547,-0.286523 -1.970931,-0.644677 -1.003382,-0.393969 -1.827589,-0.967014 -0.824207,-0.573046 -1.361733,-1.432614 -0.537527,-0.895384 -0.537527,-2.220552 0,-1.074461 0.394186,-2.005659 0.430021,-0.967015 1.290064,-1.683322 0.895876,-0.752122 2.257611,-1.146091 1.361733,-0.429785 3.260993,-0.429785 1.648414,0 3.045983,0.250708 1.433404,0.250708 2.472622,0.716306 l -0.680867,3.724797 q -0.609197,-0.179077 -1.89926,-0.573045 -1.290064,-0.429785 -2.902643,-0.429785 -1.684249,0 -2.293446,0.429785 -0.573362,0.393968 -0.573362,0.859568 0,0.393969 0.250846,0.716307 0.286681,0.286522 0.716702,0.53723 0.465856,0.250708 1.039218,0.501415 0.609197,0.214892 1.290063,0.429785 0.967548,0.322338 2.006765,0.716306 1.039219,0.39397 1.863426,1.00283 0.860042,0.573046 1.397569,1.504245 0.537526,0.895383 0.537526,2.220552 0,1.038645 -0.394187,1.969844 -0.394185,0.931199 -1.325898,1.611691 -0.895877,0.680491 -2.365116,1.07446 -1.469239,0.393969 -3.619345,0.393969 -2.18594,0 -3.72685,-0.501415 -1.540909,-0.501415 -2.472621,-0.895384 l 0.680867,-3.688981 q 1.254228,0.501415 2.651796,0.931199 1.433404,0.429785 2.902643,0.429785 z" />
            <path
               inkscape:connector-curvature="0"
               id="path1526"
               style="font-style:normal;font-variant:normal;font-weight:bold;font-stretch:normal;font-size:35.82522202px;line-height:1.25;font-family:'Ubuntu Mono';-inkscape-font-specification:'Ubuntu Mono Bold';letter-spacing:0px;word-spacing:0px;fill:#ffffff;fill-opacity:1;stroke:none;stroke-width:1.34344578"
               d="m 62.250864,66.989637 v -24.10373 l 4.407716,-0.752123 v 8.1659 q 0.537526,-0.179077 1.290063,-0.322338 0.752538,-0.179077 1.325899,-0.179077 1.863425,0 3.117654,0.573045 1.254227,0.537231 2.006765,1.575876 0.752537,1.00283 1.075053,2.435444 0.322516,1.396799 0.322516,3.115936 v 9.491067 h -4.407718 v -8.918022 q 0,-2.363814 -0.537526,-3.402458 -0.537526,-1.038645 -2.042601,-1.038645 -0.609195,0 -1.218392,0.14326 -0.573362,0.143262 -0.931713,0.250708 v 12.965157 z" />
            <path
               inkscape:connector-curvature="0"
               style="font-style:normal;font-variant:normal;font-weight:bold;font-stretch:normal;font-size:35.82522202px;line-height:1.25;font-family:'Ubuntu Mono';-inkscape-font-specification:'Ubuntu Mono Bold';letter-spacing:0px;word-spacing:0px;fill:#ffffff;fill-opacity:1;stroke:none;stroke-width:1.34344578"
               d="m 79.201172,50.15625 v 3.654297 h 4.658203 v 6.195312 c 0,1.169968 0.09599,2.207913 0.287109,3.115235 0.191121,0.907322 0.512886,1.683449 0.966797,2.328125 0.477802,0.620799 1.098799,1.099317 1.863281,1.433593 0.788372,0.334277 1.755621,0.5 2.902344,0.5 0.668922,0 1.399128,-0.08286 2.1875,-0.25 0.812262,-0.143261 1.672256,-0.429591 2.580078,-0.859374 l -0.574218,-3.544922 c -0.716702,0.334276 -1.362186,0.560302 -1.935547,0.679687 -0.573362,0.09551 -1.062619,0.142578 -1.46875,0.142578 -0.860042,0 -1.48104,-0.237306 -1.863281,-0.714843 -0.358351,-0.501416 -0.53711,-1.254984 -0.53711,-2.257813 V 50.15625 Z"
               id="path1528" />
            <path
               inkscape:connector-curvature="0"
               id="path1530"
               style="font-style:normal;font-variant:normal;font-weight:bold;font-stretch:normal;font-size:35.82522202px;line-height:1.25;font-family:'Ubuntu Mono';-inkscape-font-specification:'Ubuntu Mono Bold';letter-spacing:0px;word-spacing:0px;fill:#ffffff;fill-opacity:1;stroke:none;stroke-width:1.34344578"
               d="m 111.48829,54.633342 q -0.43003,-0.107447 -1.03922,-0.214893 -0.57337,-0.107446 -1.18256,-0.179077 -0.6092,-0.107445 -1.18256,-0.143261 -0.57336,-0.03581 -0.96755,-0.03581 -0.93171,0 -1.82759,0.107447 -0.89588,0.07163 -1.82758,0.322338 V 66.989637 H 99.017671 V 51.266699 q 1.755929,-0.644677 3.583509,-1.038645 1.86342,-0.39397 4.33604,-0.39397 0.35836,0 1.00339,0.03581 0.68087,0.03582 1.43341,0.143261 0.75253,0.07163 1.50507,0.214893 0.78837,0.107445 1.39756,0.322338 z" />
            <path
               inkscape:connector-curvature="0"
               id="path1532"
               style="font-style:normal;font-variant:normal;font-weight:bold;font-stretch:normal;font-size:35.82522202px;line-height:1.25;font-family:'Ubuntu Mono';-inkscape-font-specification:'Ubuntu Mono Bold';letter-spacing:0px;word-spacing:0px;fill:#ffffff;fill-opacity:1;stroke:none;stroke-width:1.34344578"
               d="m 122.74051,63.837886 q 0.7167,0 1.39756,0 0.68087,-0.03582 1.18256,-0.107446 v -3.868058 q -0.43002,-0.07163 -1.03922,-0.107445 -0.6092,-0.07163 -1.11088,-0.07163 -0.68087,0 -1.3259,0.107446 -0.64504,0.07163 -1.14672,0.286523 -0.46586,0.214892 -0.75254,0.60886 -0.28668,0.39397 -0.28668,1.038646 0,1.146091 0.86004,1.647506 0.86004,0.465599 2.22178,0.465599 z m -0.39419,-14.111248 q 2.07843,0 3.44017,0.501416 1.39757,0.465598 2.22178,1.360983 0.82421,0.859568 1.18256,2.14892 0.35834,1.253538 0.35834,2.829413 v 10.028298 q -0.96754,0.214892 -2.86681,0.501415 -1.89925,0.286523 -4.26437,0.286523 -1.61258,0 -2.93848,-0.286523 -1.29006,-0.286523 -2.22177,-0.931199 -0.93172,-0.680492 -1.43341,-1.719136 -0.50169,-1.074461 -0.50169,-2.614522 0,-1.468429 0.57336,-2.471259 0.57336,-1.002829 1.54092,-1.61169 0.96754,-0.608862 2.22177,-0.859568 1.25422,-0.286523 2.61596,-0.286523 1.72008,0 3.04598,0.286523 v -0.537231 q 0,-1.253537 -0.78837,-2.07729 -0.78838,-0.859569 -2.72347,-0.859569 -1.25422,0 -2.43678,0.179077 -1.14673,0.179076 -1.86342,0.429784 l -0.6092,-3.545719 q 0.82421,-0.286523 2.32928,-0.501415 1.50508,-0.250708 3.11765,-0.250708 z" />
            <path
               inkscape:connector-curvature="0"
               id="path1534"
               style="font-style:normal;font-variant:normal;font-weight:bold;font-stretch:normal;font-size:35.82522202px;line-height:1.25;font-family:'Ubuntu Mono';-inkscape-font-specification:'Ubuntu Mono Bold';letter-spacing:0px;word-spacing:0px;fill:#ffffff;fill-opacity:1;stroke:none;stroke-width:1.34344578"
               d="m 146.92919,53.379804 q -0.5017,0.573046 -1.4334,1.719137 -0.93172,1.110276 -2.04261,2.507074 -1.07505,1.396799 -2.18594,2.936859 -1.07504,1.504245 -1.93509,2.793598 h 7.95539 v 3.653165 h -13.22315 v -2.686151 q 0.82421,-1.360984 1.79175,-2.793598 0.96755,-1.432613 1.9351,-2.793597 0.96755,-1.396799 1.89926,-2.650335 0.93171,-1.253538 1.68425,-2.256367 h -6.952 v -3.653166 h 12.50644 z" />
            <path
               inkscape:connector-curvature="0"
               id="path1536"
               style="font-style:normal;font-variant:normal;font-weight:bold;font-stretch:normal;font-size:35.82522202px;line-height:1.25;font-family:'Ubuntu Mono';-inkscape-font-specification:'Ubuntu Mono Bold';letter-spacing:0px;word-spacing:0px;fill:#ffffff;fill-opacity:1;stroke:none;stroke-width:1.34344578"
               d="m 166.31597,66.27333 q -0.1075,0.07163 -0.50168,0.250708 -0.35835,0.179077 -0.96755,0.393968 -0.6092,0.179077 -1.50508,0.322338 -0.86003,0.143262 -1.97093,0.143262 -3.04598,0 -4.44354,-1.790767 -1.39758,-1.826584 -1.39758,-5.300672 V 46.001842 h -4.65856 v -3.653165 h 9.06629 v 18.265828 q 0,1.719137 0.68085,2.327997 0.68087,0.608861 1.72009,0.608861 1.3259,0 2.22178,-0.358153 0.89588,-0.358153 1.18256,-0.4656 z" />
            <path
               inkscape:connector-curvature="0"
               id="path1538"
               style="font-style:normal;font-variant:normal;font-weight:bold;font-stretch:normal;font-size:35.82522202px;line-height:1.25;font-family:'Ubuntu Mono';-inkscape-font-specification:'Ubuntu Mono Bold';letter-spacing:0px;word-spacing:0px;fill:#ffffff;fill-opacity:1;stroke:none;stroke-width:1.34344578"
               d="m 183.19431,66.416592 q -1.21839,0.322338 -2.97432,0.644676 -1.72008,0.322338 -3.76268,0.322338 -2.07843,0 -3.40433,-0.573046 -1.32591,-0.573045 -2.11427,-1.611691 -0.75254,-1.07446 -1.03922,-2.507074 -0.28668,-1.432614 -0.28668,-3.151751 v -9.383621 h 4.40772 v 8.810576 q 0,2.327997 0.53752,3.474088 0.57336,1.110276 2.18595,1.110276 1.00337,0 2.00676,-0.179076 V 50.156423 h 4.44355 z" />
            <path
               inkscape:connector-curvature="0"
               id="path1540"
               style="font-style:normal;font-variant:normal;font-weight:bold;font-stretch:normal;font-size:35.82522202px;line-height:1.25;font-family:'Ubuntu Mono';-inkscape-font-specification:'Ubuntu Mono Bold';letter-spacing:0px;word-spacing:0px;fill:#ffffff;fill-opacity:1;stroke:none;stroke-width:1.34344578"
               d="m 191.07804,58.0358 q 0,2.07729 0.75253,3.187566 0.75254,1.07446 2.36512,1.07446 0.7167,0 1.32589,-0.179077 0.64504,-0.179076 1.14673,-0.465599 v -8.094269 q -0.50169,-0.107447 -0.89588,-0.143262 -0.39419,-0.03582 -0.82421,-0.03582 -3.87018,0 -3.87018,4.655996 z m 10.03382,6.912362 q 0,4.118765 -2.00676,6.08861 -1.97093,1.969844 -6.37865,1.969844 -1.57674,0 -3.04599,-0.322338 -1.4334,-0.322338 -2.7593,-0.752123 l 0.82421,-3.724796 q 1.03921,0.393968 2.18594,0.716306 1.14673,0.358155 2.86681,0.358155 1.14672,0 1.89925,-0.286523 0.75254,-0.250708 1.18257,-0.716308 0.43002,-0.465598 0.6092,-1.110275 0.17917,-0.608861 0.17917,-1.325169 v -0.680491 q -0.93171,0.358153 -1.72009,0.53723 -0.75253,0.179078 -1.64841,0.179078 -3.29683,0 -5.01691,-2.077291 -1.68426,-2.07729 -1.68426,-5.766271 0,-4.154581 2.29345,-6.196055 2.29345,-2.041476 6.23531,-2.041476 2.7593,0 5.98446,0.895383 z" />
          </g>
          <g
             style="fill:#e95420;fill-opacity:1"
             transform="matrix(0.05918993,0,0,0.05915732,73.963325,43.449238)"
             id="g4">
            <path
               id="path2"
               d="m 128,243.32194 c 70.69245,0 128,-57.30755 128,-128 0,-70.692448 -57.30755,-127.999999 -128,-127.999999 -70.692448,0 -128,57.307551 -128,127.999999 0,70.69245 57.307552,128 128,128 z m 0,-26.12245 c -56.265418,0 -101.877551,-45.61213 -101.877551,-101.87755 0,-56.265418 45.612133,-101.877551 101.877551,-101.877551 56.26542,0 101.87755,45.612133 101.87755,101.877551 0,56.26542 -45.61213,101.87755 -101.87755,101.87755 z M 126.9551,43.485205 c -33.959182,0 -62.432651,23.771429 -69.746937,55.640815 H 91.428571 C 97.697959,85.542348 111.28163,76.138267 126.9551,76.138267 c 21.68163,0 39.18368,17.502043 39.18368,39.183673 0,21.68163 -17.50205,39.18367 -39.18368,39.18367 -15.67347,0 -29.257141,-9.40408 -35.526529,-22.72653 H 57.208163 c 7.314286,31.60817 35.787755,55.37959 69.746937,55.37959 39.70612,0 71.83674,-32.13061 71.83674,-71.83673 0,-39.706122 -32.13062,-71.836735 -71.83674,-71.836735 z"
               inkscape:connector-curvature="0"
               style="fill:#e95420;fill-opacity:1" />
          </g>
          <path
             inkscape:connector-curvature="0"
             id="path4"
             d="m 196.60952,75.66725 v 0.0042 c -0.84485,0 -1.5618,0.299252 -2.15915,0.896602 -0.59735,0.597359 -0.89659,1.312951 -0.89659,2.157779 0,0.844828 0.29924,1.571234 0.89659,2.168584 0.59735,0.597351 1.3143,0.895248 2.15915,0.895248 v -0.0042 h 19.93447 v 0.0042 c 0.84483,0 1.56989,-0.297897 2.16725,-0.895248 0.59733,-0.59735 0.89522,-1.323756 0.89522,-2.168584 0,-0.844828 -0.29789,-1.56042 -0.89522,-2.157779 -0.59736,-0.59735 -1.32242,-0.896602 -2.16725,-0.896602 v -0.0042 z"
             style="fill:#ffffff;fill-opacity:1;stroke-width:0.69135392" />
          <path
             inkscape:connector-curvature="0"
             id="path839"
             d="m 24.532211,54.675693 c -0.794477,0 -1.475992,0.283002 -2.043476,0.850486 -0.559376,0.559377 -0.84279,1.241305 -0.84279,2.03578 0,0.794474 0.283414,1.475116 0.84279,2.034493 l 8.82813,8.828135 -8.819149,8.820442 c -0.567486,0.567479 -0.851361,1.248984 -0.859468,2.043471 0.008,0.794469 0.291111,1.475118 0.850487,2.034489 0.567484,0.559372 1.249411,0.842397 2.035782,0.850476 0.802582,0 1.482407,-0.282987 2.04989,-0.850476 l 9.809461,-9.817154 c 2.059155,-2.051043 2.059155,-4.111039 0,-6.170179 L 26.56671,55.518482 c -0.562079,-0.562078 -1.240021,-0.84279 -2.034499,-0.842789 z"
             style="fill:#ffffff;fill-opacity:1;stroke-width:0.6567862" />
        </g>
      </g>
      <text
         transform="translate(-2.75,-3.75)"
         y="-0.25"
         id="text1013"
         style="font-style:normal;font-weight:normal;font-size:40px;line-height:1.25;font-family:sans-serif;letter-spacing:0px;word-spacing:0px;fill:#e95420;fill-opacity:1;stroke:none"
         xml:space="preserve"><textPath
           style="font-style:normal;font-variant:normal;font-weight:normal;font-stretch:normal;font-size:14.66666698px;font-family:Ubuntu;-inkscape-font-specification:Ubuntu;fill:#e95420;fill-opacity:1"
           id="textPath1015"
           xlink:href="#rect863"><tspan
   dx="518"
   id="tspan1011"
   style="font-style:normal;font-variant:normal;font-weight:normal;font-stretch:normal;font-size:14.66666698px;font-family:Ubuntu;-inkscape-font-specification:Ubuntu;fill:#e95420;fill-opacity:1">promissio alicuius libertatis</tspan></textPath></text>
    </g>
  </g>
</svg>
